<svg xmlns="http://www.w3.org/2000/svg" width="65" height="23" viewBox="0 0 65 23">
    <g fill="#323F50" fill-rule="evenodd" opacity=".883">
        <path d="M4.012 22.049H.779V4.2h3.283v7.05C4.613 10.389 5.966 9.6 7.796 9.6c3.608 0 5.688 2.736 5.688 6.336 0 3.673-2.305 6.41-5.814 6.41-1.704 0-3.007-.74-3.658-1.776v1.48zm6.14-6.09c0-2.218-1.354-3.426-3.058-3.426-1.679 0-3.082 1.208-3.082 3.426 0 2.194 1.403 3.452 3.082 3.452 1.704 0 3.057-1.233 3.057-3.452zm3.974 2.786c0-2.17 1.63-3.377 3.684-3.673l3.032-.444c.702-.098.927-.444.927-.863 0-.863-.676-1.578-2.08-1.578-1.453 0-2.255.913-2.355 1.973l-2.957-.617c.2-1.898 1.98-3.993 5.287-3.993 3.91 0 5.363 2.17 5.363 4.61v5.966c0 .64.075 1.504.15 1.923H22.12c-.075-.32-.125-.986-.125-1.455-.627.962-1.804 1.8-3.634 1.8-2.63 0-4.235-1.75-4.235-3.649zm4.937 1.208c1.403 0 2.706-.665 2.706-2.81V16.6l-2.781.42c-.852.123-1.529.591-1.529 1.528 0 .715.526 1.405 1.604 1.405zM30.48 22.05h-3.333V4.2h3.333v17.849zm1.268-3.378l2.857-.616c.075.961.802 1.849 2.255 1.849 1.103 0 1.63-.567 1.63-1.208 0-.543-.377-.986-1.329-1.184l-1.629-.37c-2.38-.517-3.458-1.922-3.458-3.623 0-2.17 1.955-3.97 4.611-3.97 3.508 0 4.686 2.195 4.836 3.501l-2.781.617c-.1-.715-.627-1.627-2.03-1.627-.877 0-1.579.517-1.579 1.208 0 .591.451.961 1.128 1.084l1.754.37c2.43.493 3.659 1.948 3.659 3.723 0 1.972-1.554 3.993-4.787 3.993-3.708 0-4.986-2.366-5.137-3.747zm10.616.074c0-2.17 1.629-3.377 3.684-3.673l3.032-.444c.702-.098.927-.444.927-.863 0-.863-.676-1.578-2.08-1.578-1.453 0-2.255.913-2.355 1.973l-2.957-.617c.2-1.898 1.98-3.993 5.287-3.993 3.91 0 5.363 2.17 5.363 4.61v5.966c0 .64.075 1.504.15 1.923H50.36c-.075-.32-.125-.986-.125-1.455-.627.962-1.805 1.8-3.634 1.8-2.631 0-4.235-1.75-4.235-3.649zm4.937 1.208c1.403 0 2.706-.665 2.706-2.81V16.6l-2.781.42c-.852.123-1.529.591-1.529 1.528 0 .715.526 1.405 1.604 1.405zM60.28 2.187c-3.255.334-6.112 2.183-5.577 7.143l.135 1.254 6.35-1.63c1.945-.487 3.398-1.731 3.164-3.898-.178-1.653-1.571-3.125-4.071-2.869zM48.86.47c2.482.34 4.615 1.85 4.06 5.697l-.14.973-4.812-1.425c-1.475-.428-2.55-1.432-2.308-3.112.185-1.283 1.295-2.394 3.2-2.133z"/>
    </g>
</svg>
